<mxfile host="app.diagrams.net" modified="2024-05-20T15:36:52.906Z" agent="Mozilla/5.0 (Windows NT 10.0; Win64; x64) AppleWebKit/537.36 (KHTML, like Gecko) Chrome/122.0.0.0 YaBrowser/24.4.0.0 Safari/537.36" etag="-QSm-iBBESAC8Hdzq4Ga" version="24.4.4" type="device">
  <diagram name="Страница — 1" id="hncAz6DJaV-uBHCwdcEg">
    <mxGraphModel dx="2049" dy="-104" grid="0" gridSize="10" guides="1" tooltips="1" connect="1" arrows="1" fold="1" page="0" pageScale="1" pageWidth="827" pageHeight="1169" math="0" shadow="0">
      <root>
        <mxCell id="0" />
        <mxCell id="1" parent="0" />
        <mxCell id="SjPI5wH6TBRCtu9rgjlg-1" value="" style="group" parent="1" connectable="0" vertex="1">
          <mxGeometry x="212" y="1328" width="1232" height="775" as="geometry" />
        </mxCell>
        <mxCell id="SjPI5wH6TBRCtu9rgjlg-2" value="" style="rounded=0;whiteSpace=wrap;html=1;fillColor=default;movable=1;resizable=1;rotatable=1;deletable=1;editable=1;locked=0;connectable=1;" parent="SjPI5wH6TBRCtu9rgjlg-1" vertex="1">
          <mxGeometry x="2" y="5" width="1230" height="770" as="geometry" />
        </mxCell>
        <mxCell id="SjPI5wH6TBRCtu9rgjlg-3" value="" style="endArrow=classic;html=1;rounded=0;entryX=0;entryY=0.5;entryDx=0;entryDy=0;" parent="SjPI5wH6TBRCtu9rgjlg-1" edge="1">
          <mxGeometry width="50" height="50" relative="1" as="geometry">
            <mxPoint x="2" y="294" as="sourcePoint" />
            <mxPoint x="225.78999999999996" y="293.82500000000005" as="targetPoint" />
          </mxGeometry>
        </mxCell>
        <mxCell id="SjPI5wH6TBRCtu9rgjlg-4" value="&lt;font style=&quot;font-size: 14px;&quot;&gt;Товары&lt;/font&gt;" style="edgeLabel;html=1;align=center;verticalAlign=middle;resizable=0;points=[];" parent="SjPI5wH6TBRCtu9rgjlg-3" connectable="0" vertex="1">
          <mxGeometry x="-0.0918" y="1" relative="1" as="geometry">
            <mxPoint as="offset" />
          </mxGeometry>
        </mxCell>
        <mxCell id="SjPI5wH6TBRCtu9rgjlg-5" value="" style="endArrow=classic;html=1;rounded=0;exitX=1;exitY=0.5;exitDx=0;exitDy=0;entryX=0.999;entryY=0.476;entryDx=0;entryDy=0;entryPerimeter=0;" parent="SjPI5wH6TBRCtu9rgjlg-1" source="SjPI5wH6TBRCtu9rgjlg-31" edge="1" target="SjPI5wH6TBRCtu9rgjlg-2">
          <mxGeometry width="50" height="50" relative="1" as="geometry">
            <mxPoint x="730" y="330" as="sourcePoint" />
            <mxPoint x="1230" y="368" as="targetPoint" />
          </mxGeometry>
        </mxCell>
        <mxCell id="SjPI5wH6TBRCtu9rgjlg-6" value="&lt;font style=&quot;font-size: 11px;&quot;&gt;Заказ&lt;/font&gt;" style="edgeLabel;html=1;align=center;verticalAlign=middle;resizable=0;points=[];" parent="SjPI5wH6TBRCtu9rgjlg-5" connectable="0" vertex="1">
          <mxGeometry x="-0.0918" y="1" relative="1" as="geometry">
            <mxPoint x="153" y="-1" as="offset" />
          </mxGeometry>
        </mxCell>
        <mxCell id="SjPI5wH6TBRCtu9rgjlg-10" value="" style="endArrow=classic;html=1;rounded=0;entryX=0.25;entryY=0;entryDx=0;entryDy=0;" parent="SjPI5wH6TBRCtu9rgjlg-1" target="SjPI5wH6TBRCtu9rgjlg-29" edge="1">
          <mxGeometry width="50" height="50" relative="1" as="geometry">
            <mxPoint x="257" y="5" as="sourcePoint" />
            <mxPoint x="480" y="294.41176470588243" as="targetPoint" />
          </mxGeometry>
        </mxCell>
        <mxCell id="SjPI5wH6TBRCtu9rgjlg-11" value="Валидация формы ввода данных" style="edgeLabel;html=1;align=center;verticalAlign=middle;resizable=0;points=[];rotation=270;" parent="SjPI5wH6TBRCtu9rgjlg-10" connectable="0" vertex="1">
          <mxGeometry x="-0.0918" y="1" relative="1" as="geometry">
            <mxPoint x="-12" y="-7" as="offset" />
          </mxGeometry>
        </mxCell>
        <mxCell id="SjPI5wH6TBRCtu9rgjlg-14" value="" style="endArrow=classic;html=1;rounded=0;entryX=0.5;entryY=1;entryDx=0;entryDy=0;exitX=0.589;exitY=-0.098;exitDx=0;exitDy=0;exitPerimeter=0;" parent="SjPI5wH6TBRCtu9rgjlg-1" source="SjPI5wH6TBRCtu9rgjlg-19" target="SjPI5wH6TBRCtu9rgjlg-32" edge="1">
          <mxGeometry width="50" height="50" relative="1" as="geometry">
            <mxPoint x="722" y="724" as="sourcePoint" />
            <mxPoint x="556.3108256880734" y="406.9897058823531" as="targetPoint" />
          </mxGeometry>
        </mxCell>
        <mxCell id="SjPI5wH6TBRCtu9rgjlg-15" value="&lt;span style=&quot;font-size: 14px;&quot;&gt;Кондитер&lt;/span&gt;" style="edgeLabel;html=1;align=center;verticalAlign=middle;resizable=0;points=[];rotation=270;" parent="SjPI5wH6TBRCtu9rgjlg-14" connectable="0" vertex="1">
          <mxGeometry x="-0.0918" y="1" relative="1" as="geometry">
            <mxPoint x="-10" y="-9" as="offset" />
          </mxGeometry>
        </mxCell>
        <mxCell id="SjPI5wH6TBRCtu9rgjlg-16" value="" style="endArrow=classic;html=1;rounded=0;exitX=0.5;exitY=1;exitDx=0;exitDy=0;entryX=0.381;entryY=1.01;entryDx=0;entryDy=0;entryPerimeter=0;" parent="SjPI5wH6TBRCtu9rgjlg-1" edge="1">
          <mxGeometry width="50" height="50" relative="1" as="geometry">
            <mxPoint x="515" y="768.3" as="sourcePoint" />
            <mxPoint x="513" y="405.3" as="targetPoint" />
          </mxGeometry>
        </mxCell>
        <mxCell id="SjPI5wH6TBRCtu9rgjlg-17" value="&lt;span style=&quot;font-size: 14px;&quot;&gt;Администрация&lt;/span&gt;" style="edgeLabel;html=1;align=center;verticalAlign=middle;resizable=0;points=[];rotation=270;" parent="SjPI5wH6TBRCtu9rgjlg-16" connectable="0" vertex="1">
          <mxGeometry x="-0.0918" y="1" relative="1" as="geometry">
            <mxPoint x="-10" y="-9" as="offset" />
          </mxGeometry>
        </mxCell>
        <mxCell id="SjPI5wH6TBRCtu9rgjlg-18" value="" style="shape=table;startSize=0;container=1;collapsible=0;childLayout=tableLayout;fontSize=16;" parent="SjPI5wH6TBRCtu9rgjlg-1" vertex="1">
          <mxGeometry x="2" y="729.71" width="1229" height="45.29" as="geometry" />
        </mxCell>
        <mxCell id="SjPI5wH6TBRCtu9rgjlg-19" value="" style="shape=tableRow;horizontal=0;startSize=0;swimlaneHead=0;swimlaneBody=0;strokeColor=inherit;top=0;left=0;bottom=0;right=0;collapsible=0;dropTarget=0;fillColor=none;points=[[0,0.5],[1,0.5]];portConstraint=eastwest;fontSize=16;" parent="SjPI5wH6TBRCtu9rgjlg-18" vertex="1">
          <mxGeometry width="1229" height="45" as="geometry" />
        </mxCell>
        <mxCell id="SjPI5wH6TBRCtu9rgjlg-20" value="УЗЕЛ: А1" style="shape=partialRectangle;html=1;whiteSpace=wrap;connectable=0;strokeColor=inherit;overflow=hidden;fillColor=none;top=0;left=0;bottom=0;right=0;pointerEvents=1;fontSize=16;align=left;spacingLeft=10;" parent="SjPI5wH6TBRCtu9rgjlg-19" vertex="1">
          <mxGeometry width="145" height="45" as="geometry">
            <mxRectangle width="145" height="45" as="alternateBounds" />
          </mxGeometry>
        </mxCell>
        <mxCell id="SjPI5wH6TBRCtu9rgjlg-21" value="ЗАГОЛОВОК:&lt;span style=&quot;white-space: pre;&quot;&gt;&#x9;&lt;/span&gt;Деятельность интернет-магазина &quot;Сладости&quot;" style="shape=partialRectangle;html=1;whiteSpace=wrap;connectable=0;strokeColor=inherit;overflow=hidden;fillColor=none;top=0;left=0;bottom=0;right=0;pointerEvents=1;fontSize=16;align=left;spacingLeft=10;" parent="SjPI5wH6TBRCtu9rgjlg-19" vertex="1">
          <mxGeometry x="145" width="951" height="45" as="geometry">
            <mxRectangle width="951" height="45" as="alternateBounds" />
          </mxGeometry>
        </mxCell>
        <mxCell id="SjPI5wH6TBRCtu9rgjlg-22" value="&lt;font style=&quot;font-size: 17px;&quot;&gt;НОМЕР:&lt;span style=&quot;white-space: pre;&quot;&gt;&#x9;&lt;/span&gt;2&lt;/font&gt;" style="shape=partialRectangle;html=1;whiteSpace=wrap;connectable=0;strokeColor=inherit;overflow=hidden;fillColor=none;top=0;left=0;bottom=0;right=0;pointerEvents=1;fontSize=16;align=left;spacingLeft=10;" parent="SjPI5wH6TBRCtu9rgjlg-19" vertex="1">
          <mxGeometry x="1096" width="133" height="45" as="geometry">
            <mxRectangle width="133" height="45" as="alternateBounds" />
          </mxGeometry>
        </mxCell>
        <mxCell id="SjPI5wH6TBRCtu9rgjlg-25" style="edgeStyle=elbowEdgeStyle;rounded=0;orthogonalLoop=1;jettySize=auto;html=1;fontSize=12;startSize=8;endSize=8;exitX=1.002;exitY=0.703;exitDx=0;exitDy=0;exitPerimeter=0;elbow=horizontal;" parent="SjPI5wH6TBRCtu9rgjlg-1" source="SjPI5wH6TBRCtu9rgjlg-29" target="SjPI5wH6TBRCtu9rgjlg-31" edge="1">
          <mxGeometry relative="1" as="geometry" />
        </mxCell>
        <mxCell id="SjPI5wH6TBRCtu9rgjlg-26" value="Данные заказа" style="edgeLabel;html=1;align=center;verticalAlign=middle;resizable=0;points=[];fontSize=14;" parent="SjPI5wH6TBRCtu9rgjlg-25" connectable="0" vertex="1">
          <mxGeometry x="-0.1878" y="-2" relative="1" as="geometry">
            <mxPoint x="-8" y="20" as="offset" />
          </mxGeometry>
        </mxCell>
        <mxCell id="SjPI5wH6TBRCtu9rgjlg-51" style="edgeStyle=orthogonalEdgeStyle;rounded=0;orthogonalLoop=1;jettySize=auto;html=1;" parent="SjPI5wH6TBRCtu9rgjlg-1" source="SjPI5wH6TBRCtu9rgjlg-29" edge="1">
          <mxGeometry relative="1" as="geometry">
            <mxPoint x="510" y="339.9999999999998" as="targetPoint" />
          </mxGeometry>
        </mxCell>
        <mxCell id="SjPI5wH6TBRCtu9rgjlg-52" value="&lt;font style=&quot;font-size: 12px;&quot;&gt;Оповещение&lt;/font&gt;" style="edgeLabel;html=1;align=center;verticalAlign=middle;resizable=0;points=[];" parent="SjPI5wH6TBRCtu9rgjlg-51" vertex="1" connectable="0">
          <mxGeometry x="-0.1023" y="-2" relative="1" as="geometry">
            <mxPoint y="-2" as="offset" />
          </mxGeometry>
        </mxCell>
        <mxCell id="SjPI5wH6TBRCtu9rgjlg-29" value="&lt;font style=&quot;font-size: 14px;&quot;&gt;Оформление заказа&lt;/font&gt;" style="rounded=0;whiteSpace=wrap;html=1;gradientColor=#F2F2F2;strokeWidth=1;" parent="SjPI5wH6TBRCtu9rgjlg-1" vertex="1">
          <mxGeometry x="225.79" y="270" width="124.22" height="67.65" as="geometry" />
        </mxCell>
        <mxCell id="SjPI5wH6TBRCtu9rgjlg-30" value="А1" style="text;html=1;strokeColor=none;fillColor=none;align=center;verticalAlign=middle;whiteSpace=wrap;rounded=0;fontSize=11;" parent="SjPI5wH6TBRCtu9rgjlg-1" vertex="1">
          <mxGeometry x="303" y="312" width="70" height="30" as="geometry" />
        </mxCell>
        <mxCell id="SjPI5wH6TBRCtu9rgjlg-45" style="edgeStyle=orthogonalEdgeStyle;rounded=0;orthogonalLoop=1;jettySize=auto;html=1;entryX=0;entryY=0.5;entryDx=0;entryDy=0;" parent="SjPI5wH6TBRCtu9rgjlg-1" source="SjPI5wH6TBRCtu9rgjlg-31" target="SjPI5wH6TBRCtu9rgjlg-32" edge="1">
          <mxGeometry relative="1" as="geometry">
            <Array as="points">
              <mxPoint x="617" y="390" />
              <mxPoint x="617" y="444" />
            </Array>
          </mxGeometry>
        </mxCell>
        <mxCell id="SjPI5wH6TBRCtu9rgjlg-46" value="Данные заказа" style="edgeLabel;html=1;align=center;verticalAlign=middle;resizable=0;points=[];" parent="SjPI5wH6TBRCtu9rgjlg-45" vertex="1" connectable="0">
          <mxGeometry x="-0.026" relative="1" as="geometry">
            <mxPoint as="offset" />
          </mxGeometry>
        </mxCell>
        <mxCell id="SjPI5wH6TBRCtu9rgjlg-53" style="edgeStyle=orthogonalEdgeStyle;rounded=0;orthogonalLoop=1;jettySize=auto;html=1;entryX=0.5;entryY=0;entryDx=0;entryDy=0;" parent="SjPI5wH6TBRCtu9rgjlg-1" source="SjPI5wH6TBRCtu9rgjlg-31" target="SjPI5wH6TBRCtu9rgjlg-32" edge="1">
          <mxGeometry relative="1" as="geometry">
            <Array as="points">
              <mxPoint x="722" y="350" />
            </Array>
          </mxGeometry>
        </mxCell>
        <mxCell id="SjPI5wH6TBRCtu9rgjlg-54" value="Оповещение" style="edgeLabel;html=1;align=center;verticalAlign=middle;resizable=0;points=[];" parent="SjPI5wH6TBRCtu9rgjlg-53" vertex="1" connectable="0">
          <mxGeometry x="-0.4281" y="1" relative="1" as="geometry">
            <mxPoint x="9" as="offset" />
          </mxGeometry>
        </mxCell>
        <mxCell id="SjPI5wH6TBRCtu9rgjlg-31" value="&lt;font style=&quot;font-size: 14px;&quot;&gt;Проверка администрацией&lt;/font&gt;" style="rounded=0;whiteSpace=wrap;html=1;gradientColor=#F2F2F2;strokeWidth=1;" parent="SjPI5wH6TBRCtu9rgjlg-1" vertex="1">
          <mxGeometry x="449.89" y="337.6499999999999" width="124.22" height="67.65" as="geometry" />
        </mxCell>
        <mxCell id="SjPI5wH6TBRCtu9rgjlg-49" style="edgeStyle=orthogonalEdgeStyle;rounded=0;orthogonalLoop=1;jettySize=auto;html=1;" parent="SjPI5wH6TBRCtu9rgjlg-1" edge="1">
          <mxGeometry relative="1" as="geometry">
            <mxPoint x="1233" y="514.3449999999998" as="targetPoint" />
            <mxPoint x="997.22" y="514.11" as="sourcePoint" />
          </mxGeometry>
        </mxCell>
        <mxCell id="SjPI5wH6TBRCtu9rgjlg-50" value="Доставленный заказ" style="edgeLabel;html=1;align=center;verticalAlign=middle;resizable=0;points=[];" parent="SjPI5wH6TBRCtu9rgjlg-49" vertex="1" connectable="0">
          <mxGeometry x="0.497" y="-4" relative="1" as="geometry">
            <mxPoint x="-23" y="-5" as="offset" />
          </mxGeometry>
        </mxCell>
        <mxCell id="LHvby_V2bSVIiOeaBWaJ-128" style="edgeStyle=orthogonalEdgeStyle;rounded=0;orthogonalLoop=1;jettySize=auto;html=1;exitX=1;exitY=0.75;exitDx=0;exitDy=0;entryX=0;entryY=0.5;entryDx=0;entryDy=0;" edge="1" parent="SjPI5wH6TBRCtu9rgjlg-1" source="SjPI5wH6TBRCtu9rgjlg-32" target="LHvby_V2bSVIiOeaBWaJ-127">
          <mxGeometry relative="1" as="geometry" />
        </mxCell>
        <mxCell id="LHvby_V2bSVIiOeaBWaJ-129" value="Данные заказа" style="edgeLabel;html=1;align=center;verticalAlign=middle;resizable=0;points=[];" vertex="1" connectable="0" parent="LHvby_V2bSVIiOeaBWaJ-128">
          <mxGeometry x="-0.0084" y="-3" relative="1" as="geometry">
            <mxPoint as="offset" />
          </mxGeometry>
        </mxCell>
        <mxCell id="SjPI5wH6TBRCtu9rgjlg-32" value="&lt;font style=&quot;font-size: 14px;&quot;&gt;Приготовление&lt;/font&gt;" style="rounded=0;whiteSpace=wrap;html=1;gradientColor=#F2F2F2;strokeWidth=1;" parent="SjPI5wH6TBRCtu9rgjlg-1" vertex="1">
          <mxGeometry x="660" y="410" width="124.22" height="67.65" as="geometry" />
        </mxCell>
        <mxCell id="SjPI5wH6TBRCtu9rgjlg-33" value="" style="endArrow=classic;html=1;rounded=0;exitX=0.235;exitY=-0.105;exitDx=0;exitDy=0;entryX=0.5;entryY=1;entryDx=0;entryDy=0;exitPerimeter=0;" parent="SjPI5wH6TBRCtu9rgjlg-1" source="SjPI5wH6TBRCtu9rgjlg-19" target="SjPI5wH6TBRCtu9rgjlg-29" edge="1">
          <mxGeometry width="50" height="50" relative="1" as="geometry">
            <mxPoint x="488.1600000000001" y="779.1999999999998" as="sourcePoint" />
            <mxPoint x="486.1600000000001" y="416.20000000000005" as="targetPoint" />
          </mxGeometry>
        </mxCell>
        <mxCell id="SjPI5wH6TBRCtu9rgjlg-34" value="&lt;span style=&quot;font-size: 14px;&quot;&gt;Пользователь&lt;/span&gt;" style="edgeLabel;html=1;align=center;verticalAlign=middle;resizable=0;points=[];rotation=270;" parent="SjPI5wH6TBRCtu9rgjlg-33" connectable="0" vertex="1">
          <mxGeometry x="-0.0918" y="1" relative="1" as="geometry">
            <mxPoint x="-10" y="-9" as="offset" />
          </mxGeometry>
        </mxCell>
        <mxCell id="SjPI5wH6TBRCtu9rgjlg-39" value="А2" style="text;html=1;strokeColor=none;fillColor=none;align=center;verticalAlign=middle;whiteSpace=wrap;rounded=0;fontSize=11;" parent="SjPI5wH6TBRCtu9rgjlg-1" vertex="1">
          <mxGeometry x="530" y="380" width="70" height="30" as="geometry" />
        </mxCell>
        <mxCell id="SjPI5wH6TBRCtu9rgjlg-40" value="А3" style="text;html=1;strokeColor=none;fillColor=none;align=center;verticalAlign=middle;whiteSpace=wrap;rounded=0;fontSize=11;" parent="SjPI5wH6TBRCtu9rgjlg-1" vertex="1">
          <mxGeometry x="737" y="451.0000000000001" width="70" height="30" as="geometry" />
        </mxCell>
        <mxCell id="SjPI5wH6TBRCtu9rgjlg-41" value="" style="endArrow=classic;html=1;rounded=0;entryX=0;entryY=0.5;entryDx=0;entryDy=0;" parent="SjPI5wH6TBRCtu9rgjlg-1" edge="1">
          <mxGeometry width="50" height="50" relative="1" as="geometry">
            <mxPoint x="2" y="318" as="sourcePoint" />
            <mxPoint x="225.78999999999996" y="317.82500000000005" as="targetPoint" />
          </mxGeometry>
        </mxCell>
        <mxCell id="SjPI5wH6TBRCtu9rgjlg-42" value="&lt;font style=&quot;font-size: 14px;&quot;&gt;Данные пользователя&lt;/font&gt;" style="edgeLabel;html=1;align=center;verticalAlign=middle;resizable=0;points=[];" parent="SjPI5wH6TBRCtu9rgjlg-41" connectable="0" vertex="1">
          <mxGeometry x="-0.0918" y="1" relative="1" as="geometry">
            <mxPoint as="offset" />
          </mxGeometry>
        </mxCell>
        <mxCell id="LHvby_V2bSVIiOeaBWaJ-38" value="" style="endArrow=classic;html=1;rounded=0;entryX=0.25;entryY=0;entryDx=0;entryDy=0;" edge="1" parent="SjPI5wH6TBRCtu9rgjlg-1">
          <mxGeometry width="50" height="50" relative="1" as="geometry">
            <mxPoint x="315" y="5" as="sourcePoint" />
            <mxPoint x="315" y="270" as="targetPoint" />
          </mxGeometry>
        </mxCell>
        <mxCell id="LHvby_V2bSVIiOeaBWaJ-39" value="Законодательство РФ" style="edgeLabel;html=1;align=center;verticalAlign=middle;resizable=0;points=[];rotation=270;" connectable="0" vertex="1" parent="LHvby_V2bSVIiOeaBWaJ-38">
          <mxGeometry x="-0.0918" y="1" relative="1" as="geometry">
            <mxPoint x="-12" y="-7" as="offset" />
          </mxGeometry>
        </mxCell>
        <mxCell id="LHvby_V2bSVIiOeaBWaJ-79" value="" style="endArrow=classic;html=1;rounded=0;entryX=0.25;entryY=0;entryDx=0;entryDy=0;" edge="1" parent="SjPI5wH6TBRCtu9rgjlg-1">
          <mxGeometry width="50" height="50" relative="1" as="geometry">
            <mxPoint x="546" y="3" as="sourcePoint" />
            <mxPoint x="546" y="337.65" as="targetPoint" />
          </mxGeometry>
        </mxCell>
        <mxCell id="LHvby_V2bSVIiOeaBWaJ-80" value="Законодательство РФ" style="edgeLabel;html=1;align=center;verticalAlign=middle;resizable=0;points=[];rotation=270;" connectable="0" vertex="1" parent="LHvby_V2bSVIiOeaBWaJ-79">
          <mxGeometry x="-0.0918" y="1" relative="1" as="geometry">
            <mxPoint x="-12" y="-7" as="offset" />
          </mxGeometry>
        </mxCell>
        <mxCell id="LHvby_V2bSVIiOeaBWaJ-81" value="" style="endArrow=classic;html=1;rounded=0;entryX=0.25;entryY=0;entryDx=0;entryDy=0;" edge="1" parent="SjPI5wH6TBRCtu9rgjlg-1">
          <mxGeometry width="50" height="50" relative="1" as="geometry">
            <mxPoint x="760" y="6" as="sourcePoint" />
            <mxPoint x="760" y="410" as="targetPoint" />
          </mxGeometry>
        </mxCell>
        <mxCell id="LHvby_V2bSVIiOeaBWaJ-82" value="Законодательство РФ" style="edgeLabel;html=1;align=center;verticalAlign=middle;resizable=0;points=[];rotation=270;" connectable="0" vertex="1" parent="LHvby_V2bSVIiOeaBWaJ-81">
          <mxGeometry x="-0.0918" y="1" relative="1" as="geometry">
            <mxPoint x="-12" y="-7" as="offset" />
          </mxGeometry>
        </mxCell>
        <mxCell id="LHvby_V2bSVIiOeaBWaJ-127" value="&lt;font style=&quot;font-size: 14px;&quot;&gt;Доставка&lt;/font&gt;" style="rounded=0;whiteSpace=wrap;html=1;gradientColor=#F2F2F2;strokeWidth=1;" vertex="1" parent="SjPI5wH6TBRCtu9rgjlg-1">
          <mxGeometry x="873" y="481" width="124.22" height="67.65" as="geometry" />
        </mxCell>
        <mxCell id="LHvby_V2bSVIiOeaBWaJ-130" style="edgeStyle=orthogonalEdgeStyle;rounded=0;orthogonalLoop=1;jettySize=auto;html=1;entryX=0.5;entryY=0;entryDx=0;entryDy=0;" edge="1" parent="SjPI5wH6TBRCtu9rgjlg-1" target="LHvby_V2bSVIiOeaBWaJ-127">
          <mxGeometry relative="1" as="geometry">
            <Array as="points">
              <mxPoint x="935" y="430" />
              <mxPoint x="935" y="480" />
            </Array>
            <mxPoint x="784.22" y="430" as="sourcePoint" />
            <mxPoint x="932" y="480" as="targetPoint" />
          </mxGeometry>
        </mxCell>
        <mxCell id="LHvby_V2bSVIiOeaBWaJ-131" value="Оповещение" style="edgeLabel;html=1;align=center;verticalAlign=middle;resizable=0;points=[];" vertex="1" connectable="0" parent="LHvby_V2bSVIiOeaBWaJ-130">
          <mxGeometry x="-0.4281" y="1" relative="1" as="geometry">
            <mxPoint x="9" as="offset" />
          </mxGeometry>
        </mxCell>
        <mxCell id="LHvby_V2bSVIiOeaBWaJ-180" value="А4" style="text;html=1;strokeColor=none;fillColor=none;align=center;verticalAlign=middle;whiteSpace=wrap;rounded=0;fontSize=11;" vertex="1" parent="SjPI5wH6TBRCtu9rgjlg-1">
          <mxGeometry x="946" y="521.0000000000001" width="70" height="30" as="geometry" />
        </mxCell>
        <mxCell id="LHvby_V2bSVIiOeaBWaJ-181" value="" style="endArrow=classic;html=1;rounded=0;exitX=0.765;exitY=-0.003;exitDx=0;exitDy=0;exitPerimeter=0;entryX=0.547;entryY=1.017;entryDx=0;entryDy=0;entryPerimeter=0;" edge="1" parent="SjPI5wH6TBRCtu9rgjlg-1" source="SjPI5wH6TBRCtu9rgjlg-19" target="LHvby_V2bSVIiOeaBWaJ-127">
          <mxGeometry width="50" height="50" relative="1" as="geometry">
            <mxPoint x="945" y="726" as="sourcePoint" />
            <mxPoint x="940" y="546" as="targetPoint" />
          </mxGeometry>
        </mxCell>
        <mxCell id="LHvby_V2bSVIiOeaBWaJ-182" value="&lt;span style=&quot;font-size: 14px;&quot;&gt;Курьер&lt;/span&gt;" style="edgeLabel;html=1;align=center;verticalAlign=middle;resizable=0;points=[];rotation=270;" connectable="0" vertex="1" parent="LHvby_V2bSVIiOeaBWaJ-181">
          <mxGeometry x="-0.0918" y="1" relative="1" as="geometry">
            <mxPoint x="-10" y="-9" as="offset" />
          </mxGeometry>
        </mxCell>
        <mxCell id="LHvby_V2bSVIiOeaBWaJ-183" value="" style="endArrow=classic;html=1;rounded=0;entryX=0.25;entryY=0;entryDx=0;entryDy=0;exitX=0.786;exitY=-0.001;exitDx=0;exitDy=0;exitPerimeter=0;" edge="1" parent="SjPI5wH6TBRCtu9rgjlg-1" source="SjPI5wH6TBRCtu9rgjlg-2">
          <mxGeometry width="50" height="50" relative="1" as="geometry">
            <mxPoint x="969" y="77" as="sourcePoint" />
            <mxPoint x="969" y="481" as="targetPoint" />
          </mxGeometry>
        </mxCell>
        <mxCell id="LHvby_V2bSVIiOeaBWaJ-184" value="Законодательство РФ" style="edgeLabel;html=1;align=center;verticalAlign=middle;resizable=0;points=[];rotation=270;" connectable="0" vertex="1" parent="LHvby_V2bSVIiOeaBWaJ-183">
          <mxGeometry x="-0.0918" y="1" relative="1" as="geometry">
            <mxPoint x="-12" y="-7" as="offset" />
          </mxGeometry>
        </mxCell>
      </root>
    </mxGraphModel>
  </diagram>
</mxfile>
